<?xml version="1.0" encoding="UTF-8" standalone="no"?>
<!-- Created with Inkscape (http://www.inkscape.org/) -->

<svg
   width="74.663002mm"
   height="21.962873mm"
   viewBox="0 0 74.663002 21.962873"
   version="1.1"
   id="svg1"
   inkscape:version="1.3 (0e150ed6c4, 2023-07-21)"
   sodipodi:docname="daddyblondlegs header.svg"
   xmlns:inkscape="http://www.inkscape.org/namespaces/inkscape"
   xmlns:sodipodi="http://sodipodi.sourceforge.net/DTD/sodipodi-0.dtd"
   xmlns:xlink="http://www.w3.org/1999/xlink"
   xmlns="http://www.w3.org/2000/svg"
   xmlns:svg="http://www.w3.org/2000/svg">
  <sodipodi:namedview
     id="namedview1"
     pagecolor="#ffffff"
     bordercolor="#000000"
     borderopacity="0.25"
     inkscape:showpageshadow="2"
     inkscape:pageopacity="0.0"
     inkscape:pagecheckerboard="0"
     inkscape:deskcolor="#d1d1d1"
     inkscape:document-units="mm"
     inkscape:zoom="1.060115"
     inkscape:cx="-229.22041"
     inkscape:cy="109.42209"
     inkscape:window-width="2544"
     inkscape:window-height="1353"
     inkscape:window-x="3847"
     inkscape:window-y="15"
     inkscape:window-maximized="0"
     inkscape:current-layer="layer1" />
  <defs
     id="defs1">
    <inkscape:path-effect
       effect="simplify"
       id="path-effect11"
       is_visible="true"
       lpeversion="1.3"
       threshold="100"
       steps="1"
       smooth_angles="360"
       helper_size="0"
       simplify_individual_paths="false"
       simplify_just_coalesce="false" />
    <inkscape:path-effect
       effect="simplify"
       id="path-effect10"
       is_visible="true"
       lpeversion="1.3"
       threshold="100"
       steps="1"
       smooth_angles="360"
       helper_size="0"
       simplify_individual_paths="false"
       simplify_just_coalesce="false" />
    <inkscape:path-effect
       effect="powerstroke"
       id="path-effect9"
       is_visible="true"
       lpeversion="1.3"
       scale_width="1"
       interpolator_type="CentripetalCatmullRom"
       interpolator_beta="0.75"
       start_linecap_type="round"
       end_linecap_type="round"
       offset_points="4.9618062,0.93592435"
       linejoin_type="spiro"
       miter_limit="4"
       not_jump="true"
       sort_points="true"
       message="&lt;b&gt;Ctrl + click&lt;/b&gt; on existing node and move it" />
    <inkscape:path-effect
       effect="simplify"
       id="path-effect8"
       is_visible="true"
       lpeversion="1.3"
       threshold="0.6"
       steps="1"
       smooth_angles="0"
       helper_size="0"
       simplify_individual_paths="false"
       simplify_just_coalesce="false"
       step="1" />
    <inkscape:path-effect
       effect="powerstroke"
       id="path-effect7"
       is_visible="true"
       lpeversion="1.3"
       scale_width="1"
       interpolator_type="CentripetalCatmullRom"
       interpolator_beta="0.75"
       start_linecap_type="round"
       end_linecap_type="round"
       offset_points="6.4562567,0.93592435"
       linejoin_type="spiro"
       miter_limit="4"
       not_jump="true"
       sort_points="true"
       message="&lt;b&gt;Ctrl + click&lt;/b&gt; on existing node and move it" />
    <inkscape:path-effect
       effect="simplify"
       id="path-effect6"
       is_visible="true"
       lpeversion="1.3"
       threshold="0.6"
       steps="1"
       smooth_angles="0"
       helper_size="0"
       simplify_individual_paths="false"
       simplify_just_coalesce="false"
       step="1" />
    <linearGradient
       id="linearGradient2"
       inkscape:collect="always">
      <stop
         style="stop-color:#e1f0ff;stop-opacity:1;"
         offset="0"
         id="stop2" />
      <stop
         style="stop-color:#e2f0fc;stop-opacity:1;"
         offset="0.44113979"
         id="stop12" />
      <stop
         style="stop-color:#fff5c8;stop-opacity:1;"
         offset="0.91991341"
         id="stop3" />
    </linearGradient>
    <linearGradient
       inkscape:collect="always"
       xlink:href="#linearGradient2"
       id="linearGradient14"
       gradientUnits="userSpaceOnUse"
       gradientTransform="matrix(2.1311582,0,0,2.1311582,-162.19308,-77.175441)"
       x1="111.16608"
       y1="75.082939"
       x2="119.26023"
       y2="85.087784" />
  </defs>
  <g
     inkscape:label="Layer 1"
     inkscape:groupmode="layer"
     id="layer1"
     transform="translate(-52.414025,-69.155404)">
    <text
       xml:space="preserve"
       style="font-style:normal;font-variant:normal;font-weight:normal;font-stretch:normal;font-size:22.5547px;line-height:1.2;font-family:'Daddy Longlegs NF';-inkscape-font-specification:'Daddy Longlegs NF, Normal';font-variant-ligatures:normal;font-variant-caps:normal;font-variant-numeric:normal;font-variant-east-asian:normal;text-align:center;letter-spacing:1.14465px;word-spacing:0.0789417px;text-orientation:upright;text-anchor:middle;fill:#ffdc71;stroke:url(#linearGradient14);stroke-width:0.5;stroke-linecap:square;stroke-dasharray:none;stroke-dashoffset:43.8425;paint-order:fill markers stroke"
       x="85.137665"
       y="104.20043"
       id="text2-3"
       transform="scale(1.2126317,0.8246527)"><tspan
         sodipodi:role="line"
         id="tspan2-6"
         style="font-style:normal;font-variant:normal;font-weight:normal;font-stretch:normal;font-size:22.5547px;font-family:'Daddy Longlegs NF';-inkscape-font-specification:'Daddy Longlegs NF, Normal';font-variant-ligatures:normal;font-variant-caps:normal;font-variant-numeric:normal;font-variant-east-asian:normal;letter-spacing:1.14465px;stroke:url(#linearGradient14);stroke-width:0.5;stroke-dasharray:none;stroke-opacity:1"
         x="85.709991"
         y="104.20043">blondlegs</tspan></text>
    <path
       d="m 56.120947,73.832734 c 0.125881,-1.529608 -1.366013,0.08029 -0.879502,0.849237 -0.249314,2.878188 -0.387188,5.764326 -0.53627,8.648983 -1.155682,0.243857 -2.128229,1.017088 -2.215658,2.263764 -0.124927,1.030257 -0.241005,2.674494 0.932839,3.0945 0.956758,0.303015 1.25685,-2.456121 1.183589,-0.815923 0.308554,0.759331 -0.641485,2.58646 0.493702,2.650475 0.132931,-2.632535 -0.145271,-5.301767 0.457218,-7.893523 0.460971,-2.905947 0.682714,-5.855532 0.564082,-8.797513 z m -2.535668,14.476198 v 0.02678 z m 0.945254,-2.474249 c -0.371726,0.676308 -0.259838,2.512738 -1.170188,2.10001 -0.532247,-1.272711 -0.487155,-3.005552 0.620405,-3.968064 0.634469,0.06821 0.772861,1.401921 0.549783,1.868054 z m 0.915786,-6.661246 c -0.02349,-0.644623 0.109194,-2.106541 0.128946,-2.236433 -0.05173,0.744955 -0.08434,1.491051 -0.128946,2.236433 z m 9.672432,2.276096 c -0.933787,1.868089 -1.563092,4.051629 -3.303348,5.360176 -1.653463,0.52325 -0.340955,-2.556807 -1.097221,-3.023655 -0.697454,0.606867 -1.152618,3.844917 -2.505685,2.999937 -0.77446,-1.155532 -0.712594,-2.275951 0.194158,-3.260115 0.74488,-0.581684 2.43811,0.350349 1.797769,-0.89916 -1.20626,-0.540475 -2.474127,0.369701 -2.753033,1.486641 -0.365258,1.121848 -0.400029,2.758025 0.776758,3.393846 0.952735,0.334167 2.191839,-2.56138 2.198954,-1.624188 0.1145,2.141444 2.040503,1.526826 2.611436,0.432683 1.115477,-1.483626 1.851266,-3.203247 2.465983,-4.943805 -0.07576,-0.185156 -0.335742,-0.05529 -0.385771,0.0776 z M 68.654,71.911395 c 0.148189,-1.4933 -1.341176,0.0065 -0.888336,0.781537 -0.344729,2.536866 0.123784,5.964173 -0.583435,7.901211 -0.889211,-0.04886 -1.531051,0.357779 -1.791526,1.274887 -0.379578,1.336451 -0.927121,2.647314 0.168274,3.743343 1.089484,0.641514 1.63434,-1.197155 1.670301,-1.125586 0.148648,0.850397 -0.135544,2.701623 0.617993,2.810069 -0.226502,-1.827533 -0.0762,-2.857446 -0.0749,-4.382222 -0.0941,-1.824553 0.561349,-3.572615 0.650332,-5.387635 0.195408,-1.864529 0.268985,-3.741398 0.231304,-5.615604 z m -1.400427,10.710024 c -0.311191,0.790482 -0.241399,3.084424 -1.537933,2.402742 -0.662462,-1.298849 -0.204883,-3.539636 0.863687,-3.817323 0.50556,-0.131381 0.774835,0.854755 0.674246,1.414581 z m 0.801793,-6.775233 c -0.08096,0.824837 -0.202916,2.443476 -0.283155,2.767076 0.124615,-1.533751 0.220488,-3.069857 0.365737,-4.601904 -0.04693,0.610624 -0.05396,1.223278 -0.08258,1.834828 z m 5.423078,-5.049733 c -0.127567,-1.558218 -1.575789,0.382965 -1.1141,1.139854 -0.327719,2.796318 -0.502582,5.607302 -0.771622,8.409312 -1.155679,0.24386 -1.963715,1.238395 -2.215658,2.263769 -0.257067,1.046224 -0.241006,2.674486 0.932838,3.094491 0.856006,0.220656 1.279744,-1.815778 1.229635,-1.297549 -0.0881,0.911175 0.226945,2.992866 1.333132,3.042688 0.191578,0.0086 0.660274,-0.836178 0.27732,-0.504061 -1.108664,0.961479 -1.103482,-2.398237 -1.108273,-3.95245 -0.0081,-2.639173 0.712508,-5.145684 0.91177,-7.864881 0.142788,-1.223435 0.598327,-3.103134 0.524954,-4.331173 z m -3.005618,14.527149 v 0.02679 z m 0.907256,-2.930228 c -0.03227,0.931275 -0.281189,2.935611 -1.132191,2.55598 -0.6764,-0.301741 -0.712144,-3.839318 0.620406,-3.968055 0.498333,-0.04814 0.529123,0.911725 0.511785,1.412075 z m 1.278196,-7.013099 c -0.04099,0.606069 -0.314516,1.554917 -0.130637,0.426644 0.07612,-0.608311 0.270791,-2.451213 0.275086,-2.218 -0.05595,0.596475 -0.09381,1.194438 -0.144449,1.791356 z m 8.473733,2.795004 c -1.079373,0.770024 -1.439481,2.157894 -2.241673,3.171931 -0.491231,0.66674 -1.079213,2.089804 -1.477312,2.305793 -0.02059,-1.299151 0.363508,-2.572844 0.471819,-3.86593 0.267067,-0.445945 -0.02725,-1.96011 -0.33877,-0.789523 -0.158817,1.426144 -0.630372,2.875976 -1.624978,3.942895 -1.571199,0.223361 -1.27544,-1.960929 -1.140605,-2.94207 0.183517,-0.761335 -0.555977,-1.274762 -0.560921,-0.197178 -0.0082,1.097992 -0.608359,3.186969 0.892243,3.469798 0.870194,0.365205 2.300439,-1.848927 1.880407,-0.328207 -0.131052,1.486417 -0.503102,2.949072 -1.230312,4.257343 -0.342502,1.163636 -1.884652,2.922073 -0.676987,3.918147 1.631298,-0.479637 1.282824,-2.610531 1.66551,-3.92452 0.130373,-1.605809 0.82312,-3.051128 1.691659,-4.381119 0.88229,-1.538849 1.96624,-3.006784 2.777155,-4.556302 l -0.05223,-0.04853 z m -5.350492,11.593208 c 0.23415,0.851138 -1.170318,1.312706 -0.799665,0.180178 0.297167,-0.907875 0.954462,-2.676389 1.312864,-2.928617 -0.08535,0.930422 -0.348469,1.831383 -0.513199,2.748439 z"
       id="text1"
       style="-inkscape-font-specification:'standard pilot demo, Normal';fill:#8caad6;stroke-width:4;stroke-linecap:square;stroke-dashoffset:43.8425;paint-order:fill markers stroke"
       aria-label="daddy"
       sodipodi:nodetypes="cccccccccccccccccccsccccccccccsssccscccccssccscsccsssccacsasscsscccasaaccccccccccccccccccccccccc" />
    <path
       style="fill:none;fill-opacity:1;stroke:none;stroke-width:0.499999;stroke-linecap:square;stroke-dasharray:none;stroke-dashoffset:43.8425;stroke-opacity:1;paint-order:fill markers stroke"
       d="m 71.192646,80.926259 c -1.419595,0.483061 -1.584726,2.164338 -1.870692,3.483719 -0.290013,1.338053 1.426869,0.870899 1.970799,0.324389 0.778542,-0.782234 0.996063,-1.941907 1.228373,-2.9804 0.748747,-3.347117 0.606433,-6.802035 0.980221,-10.209548 0.08465,-0.771727 -0.05103,-2.876129 -0.374461,-2.286018 -0.853403,1.557061 -0.845502,3.396403 -1.060714,5.116388 -0.306115,2.446488 -0.314685,4.914672 -0.596277,7.367014 -0.219608,1.912536 -1.063332,4.255907 0.139459,5.769624 0.06485,0.08161 0.155955,0.160534 0.144842,0.278277"
       id="path11"
       inkscape:path-effect="#path-effect11"
       inkscape:original-d="m 71.192646,80.926259 c -1.484548,0.520523 -1.871848,2.183572 -1.871848,3.618907 0,0.155843 -0.01752,0.44168 0.06239,0.561555 0.341209,0.511815 1.797844,-0.20532 2.059035,-0.499158 1.056106,-1.188122 1.699588,-6.191618 1.871848,-7.799372 0.199583,-1.862777 0.187185,-3.739438 0.187185,-5.615545 0,-0.528064 0.03165,-1.075632 -0.249579,-1.497478 -0.08399,-0.125984 -0.0408,-0.562751 -0.124791,-0.436767 -0.751353,1.12703 -0.877819,3.799544 -1.060714,5.116388 -0.241208,1.736686 -0.224724,3.495305 -0.37437,5.241177 -0.163229,1.904335 -0.494681,3.752953 -0.37437,5.677939 0.04284,0.685433 0.115168,1.449372 0.249579,2.12143 0.03104,0.155207 0.187185,0.176101 0.187185,0.374369" />
  </g>
</svg>
